<svg xmlns="http://www.w3.org/2000/svg" data-name="Layer 1" viewBox="0 0 503.68 161"><path d="M40 0h81a40 40 0 0 1 40 40v109a12.08 12.08 0 0 1-12.08 12H40a40 40 0 0 1-40-40V40A40 40 0 0 1 40 0Z" fill="#0b6cfb"/><path d="M119.19 70.01a2.1 2.1 0 0 1-.06.7l-5.18 20.72a2.36 2.36 0 0 1-2.27 1.79l-31.09.15H49.5a2.34 2.34 0 0 1-2.28-1.78l-5.19-20.81a2.47 2.47 0 0 1-.06-.71 4.94 4.94 0 1 1 4.63-.9l6.48 6.53a8.8 8.8 0 0 0 13.27-.9l10.66-14.12a5 5 0 1 1 7.07-.08l10.58 14.16a8.86 8.86 0 0 0 7.05 3.53 8.74 8.74 0 0 0 6.22-2.57l6.57-6.52a4.95 4.95 0 1 1 4.73.81Zm-5.69 30.74a2.36 2.36 0 0 0-2.36-2.35H50.17a2.35 2.35 0 0 0-2.35 2.35v5.66a2.35 2.35 0 0 0 2.35 2.35h60.92a2.36 2.36 0 0 0 2.36-2.35Z" fill="#fff"/><path d="m254.71 23.41-14.5 7.35c-3.47-4.39-8.88-6.84-16.84-6.84-12.16 0-20.63 8.47-20.63 20a20.46 20.46 0 0 0 20.83 20.58c7.45 0 13.38-2.34 17-5.82v-6.74H219.5V39.03h35.94v25.73c-.51 1-11.44 15.32-31.76 15.32-23 0-37.78-17.26-37.78-36 0-19.3 15.83-35.94 37.68-35.94a38.13 38.13 0 0 1 31.13 15.27Zm61.07 44.62h-33.49l-4.6 10.82h-17.76l29.71-69.43h18.69l29.81 69.43h-17.87Zm-5.82-13.69-10.82-25.93-11 25.93Zm125.09 24.51H418.2V43.42l-16.64 35.43h-18.69l-16.64-35.43v35.43H349.5V9.42h18.59l24.2 50.95 24.1-50.95h18.68Zm68.63-69.43v15.52h-36.46v11.94h30.43v14.5h-30.43v11.95h36.46v15.52H450.5V9.42Z" fill="#0b6cfb"/><path d="M244.69 138.41c0 9.92-6.34 17.69-23 17.69h-29.88V95.36h26.36c17.59 0 23.13 7 23.13 16.7a15.62 15.62 0 0 1-5.72 11.61 15.81 15.81 0 0 1 9.11 14.74Zm-17.32-24.47c0-4.11-2.68-6.08-8.31-6.08H206.5v12.69h12.6c6.3 0 8.27-1.88 8.27-6.61Zm-7.33 17.77H206.5v11.79h13.58q8.85 0 8.84-5.89c-.04-4.47-3.07-5.9-8.88-5.9Zm93.7-5.98a31.35 31.35 0 1 1-31.35-31.44 31.46 31.46 0 0 1 31.35 31.44Zm-49.3 0a17.87 17.87 0 1 0 17.95-17.78 17.88 17.88 0 0 0-17.95 17.78Zm117.73 0a31.36 31.36 0 1 1-31.35-31.44 31.47 31.47 0 0 1 31.35 31.44Zm-49.31 0a17.87 17.87 0 1 0 18-17.78 17.88 17.88 0 0 0-18 17.78Zm106.03-11.17h-14.56c0-3-3.57-7.14-9.83-7.14-4.37 0-9.73 2-9.73 5.45 0 2.94 4 4.11 12.59 6.34 9.56 2.5 23.05 5.71 23.05 19.11 0 11.62-10.18 18.85-24.39 18.85-19 0-27-12.86-27-22.33h14.56s1.16 9.65 13.22 9.65c6.52 0 8.93-2.77 8.93-5.36 0-3.84-5.09-5.18-10.72-6.52-9.11-2.15-25.1-5.54-25.1-19 0-11.08 10.9-19.29 24.74-19.29 15.85-.03 24.24 10.77 24.24 20.24Zm63.87-5.62h-21.53v47.16H466.4v-47.16h-21.52V95.36h57.88Z" fill="#fff"/></svg>